{"accessors" : [{"bufferView" : 0, "byteOffset" : 0, "componentType" : 5123, "count" : 15066, "type" : "SCALAR", "max" : [15065], "min" : [0]}, {"bufferView" : 1, "byteOffset" : 0, "componentType" : 5126, "count" : 15066, "type" : "VEC3", "max" : [15.960000038146973, 11.522000312805176, 7.960000038146973], "min" : [-15.960000038146973, 0.019999999552965164, -7.960000038146973], "name" : "POSITION"}, {"bufferView" : 1, "byteOffset" : 12, "componentType" : 5126, "count" : 15066, "type" : "VEC2", "max" : [0.9890000224113464, -3.600000127335079E-05], "min" : [6.199999916134402E-05, -0.9829999804496765], "name" : "TEXCOORD_0"}], "asset" : {"generator" : "Aspose.3D 22.7", "version" : "2.0"}, "buffers" : [{"uri" : "data:application/octet-stream;base64,", "byteLength" : 331460}], "bufferViews" : [{"buffer" : 0, "byteOffset" : 0, "byteLength" : 30132, "target" : 34963}, {"buffer" : 0, "byteOffset" : 30136, "byteLength" : 301320, "byteStride" : 20, "target" : 34962}], "materials" : [{"name" : "MB|196", "pbrMetallicRoughness" : {"baseColorFactor" : [0.354, 0.294, 0, 1], "metallicFactor" : 0, "roughnessFactor" : 0}, "emissiveFactor" : [0, 0, 0], "alphaMode" : "OPAQUE", "doubleSided" : false}], "meshes" : [{"primitives" : [{"attributes" : {"POSITION" : 1, "TEXCOORD_0" : 2}, "indices" : 0, "material" : 0, "mode" : 4}], "name" : ""}], "nodes" : [{"mesh" : 0, "name" : "Part.0"}], "scene" : 0, "scenes" : [{"nodes" : [0]}]}