{"accessors" : [{"bufferView" : 0, "byteOffset" : 0, "componentType" : 5123, "count" : 22770, "type" : "SCALAR", "max" : [22769], "min" : [0]}, {"bufferView" : 1, "byteOffset" : 0, "componentType" : 5126, "count" : 22770, "type" : "VEC3", "max" : [23.959999084472656, 11.522000312805176, 7.960000038146973], "min" : [-23.959999084472656, 0.019999999552965164, -7.960000038146973], "name" : "POSITION"}, {"bufferView" : 1, "byteOffset" : 12, "componentType" : 5126, "count" : 22770, "type" : "VEC2", "max" : [0.9890000224113464, -3.600000127335079E-05], "min" : [3.7000001611886546E-05, -0.9829999804496765], "name" : "TEXCOORD_0"}], "asset" : {"generator" : "Aspose.3D 22.7", "version" : "2.0"}, "buffers" : [{"uri" : "data:application/octet-stream;base64,", "byteLength" : 500948}], "bufferViews" : [{"buffer" : 0, "byteOffset" : 0, "byteLength" : 45540, "target" : 34963}, {"buffer" : 0, "byteOffset" : 45544, "byteLength" : 455400, "byteStride" : 20, "target" : 34962}], "materials" : [{"name" : "MB|24", "pbrMetallicRoughness" : {"baseColorFactor" : [0.9386857284565036, 0.5711248294565854, 0.009134058699157796, 1], "metallicFactor" : 0, "roughnessFactor" : 0}, "emissiveFactor" : [0, 0, 0], "alphaMode" : "OPAQUE", "doubleSided" : false}], "meshes" : [{"primitives" : [{"attributes" : {"POSITION" : 1, "TEXCOORD_0" : 2}, "indices" : 0, "material" : 0, "mode" : 4}], "name" : ""}], "nodes" : [{"mesh" : 0, "name" : "Part.0"}], "scene" : 0, "scenes" : [{"nodes" : [0]}]}